<?xml version="1.0" standalone="no"?><svg xmlns:xlink="http://www.w3.org/1999/xlink" xmlns="http://www.w3.org/2000/svg" viewBox="0 0 1000 533.3333333333333" preserveAspectRatio="xMaxYMax slice"><g transform="scale(0.7407407407407407)"><rect x="0" y="0" width="1350" height="720" fill="#2a2a2a"/><rect x="90" y="0" width="90" height="90" fill="#2a2a2a"/><path d="M 90 0 A 45 45 0 0 1  135 45 L 90 0 A 45 45 0 0 0 135 45" fill="#644f7e"/><path d="M 135 45 A 45 45 0 0 1  180 90 L 135 45 A 45 45 0 0 0 180 90" fill="#7f60a5"/><path d="M 180 90 A 90 90 0 0 1  270 0 L 180 90 A 90 90 0 0 0 270 0" fill="#b683f5"/><rect x="270" y="0" width="90" height="90" fill="#2a2a2a"/><path d="M 315 45 A 45 45 0 0 1  360 0 L 315 45 A 45 45 0 0 0 360 0" fill="#15897e"/><path d="M 270 45 A 45 45 0 0 1  315 90 L 270 45 A 45 45 0 0 0 315 90" fill="#1a736a"/><rect x="360" y="0" width="90" height="90" fill="#2a2a2a"/><path d="M 360 45 A 45 45 0 0 1  405 0 L 360 45 A 45 45 0 0 0 405 0" fill="#4b3f59"/><path d="M 405 45 A 45 45 0 0 1  450 0 L 405 45 A 45 45 0 0 0 450 0" fill="#158b80"/><rect x="540" y="0" width="90" height="90" fill="#2a2a2a"/><path d="M 540 45 A 45 45 0 0 1  585 90 L 540 45 A 45 45 0 0 0 585 90" fill="#16847a"/><rect x="1260" y="0" width="90" height="90" fill="#2a2a2a"/><rect x="180" y="90" width="90" height="90" fill="#2a2a2a"/><path d="M 180 135 A 45 45 0 0 1  225 90 L 180 135 A 45 45 0 0 0 225 90" fill="#b784f6"/><path d="M 180 180 A 45 45 0 0 1  225 135 L 180 180 A 45 45 0 0 0 225 135" fill="#ae7ee9"/><rect x="270" y="90" width="90" height="90" fill="#2a2a2a"/><rect x="360" y="90" width="90" height="90" fill="#2a2a2a"/><path d="M 360 90 A 45 45 0 0 1  405 135 L 360 90 A 45 45 0 0 0 405 135" fill="#25403e"/><path d="M 360 180 A 45 45 0 0 1  405 135 L 360 180 A 45 45 0 0 0 405 135" fill="#25423f"/><rect x="450" y="90" width="90" height="90" fill="#2a2a2a"/><path d="M 450 135 A 45 45 0 0 1  495 90 L 450 135 A 45 45 0 0 0 495 90" fill="#534465"/><path d="M 810 90 A 90 90 0 0 1  900 180 L 810 90 A 90 90 0 0 0 900 180" fill="#1b6d65"/><path d="M 900 180 A 90 90 0 0 1  990 90 L 900 180 A 90 90 0 0 0 990 90" fill="#343038"/><rect x="1080" y="90" width="90" height="90" fill="#2a2a2a"/><rect x="1260" y="90" width="90" height="90" fill="#2a2a2a"/><path d="M 1305 180 A 45 45 0 0 1  1350 135 L 1305 180 A 45 45 0 0 0 1350 135" fill="#1a726a"/><path d="M 540 270 A 90 90 0 0 1  630 180 L 540 270 A 90 90 0 0 0 630 180" fill="#08c4b2"/><rect x="810" y="180" width="90" height="90" fill="#2a2a2a"/><path d="M 810 180 A 45 45 0 0 1  855 225 L 810 180 A 45 45 0 0 0 855 225" fill="#9e74d3"/><path d="M 810 225 A 45 45 0 0 1  855 270 L 810 225 A 45 45 0 0 0 855 270" fill="#a779df"/><rect x="990" y="180" width="90" height="90" fill="#2a2a2a"/><path d="M 990 225 A 45 45 0 0 1  1035 180 L 990 225 A 45 45 0 0 0 1035 180" fill="#05d0bd"/><path d="M 1035 225 A 45 45 0 0 1  1080 180 L 1035 225 A 45 45 0 0 0 1080 180" fill="#224f4b"/><path d="M 0 360 A 90 90 0 0 1  90 270 L 0 360 A 90 90 0 0 0 90 270" fill="#ba85fa"/><rect x="630" y="270" width="90" height="90" fill="#2a2a2a"/><path d="M 630 315 A 45 45 0 0 1  675 270 L 630 315 A 45 45 0 0 0 675 270" fill="#2a2b2b"/><path d="M 675 315 A 45 45 0 0 1  720 360 L 675 315 A 45 45 0 0 0 720 360" fill="#b683f5"/><rect x="990" y="270" width="90" height="90" fill="#2a2a2a"/><path d="M 1035 315 A 45 45 0 0 1  1080 360 L 1035 315 A 45 45 0 0 0 1080 360" fill="#322f36"/><rect x="1080" y="270" width="90" height="90" fill="#2a2a2a"/><path d="M 1080 270 A 45 45 0 0 1  1125 315 L 1080 270 A 45 45 0 0 0 1125 315" fill="#283231"/><path d="M 1170 360 A 90 90 0 0 1  1260 270 L 1170 360 A 90 90 0 0 0 1260 270" fill="#b381f1"/><rect x="360" y="360" width="90" height="90" fill="#2a2a2a"/><path d="M 405 360 A 45 45 0 0 1  450 405 L 405 360 A 45 45 0 0 0 450 405" fill="#8f6abd"/><path d="M 405 450 A 45 45 0 0 1  450 405 L 405 450 A 45 45 0 0 0 450 405" fill="#5c4a72"/><rect x="450" y="360" width="90" height="90" fill="#2a2a2a"/><path d="M 495 405 A 45 45 0 0 1  540 450 L 495 405 A 45 45 0 0 0 540 450" fill="#665081"/><path d="M 540 450 A 90 90 0 0 1  630 360 L 540 450 A 90 90 0 0 0 630 360" fill="#05cfbd"/><path d="M 720 450 A 90 90 0 0 1  810 360 L 720 450 A 90 90 0 0 0 810 360" fill="#745995"/><path d="M 900 450 A 90 90 0 0 1  990 360 L 900 450 A 90 90 0 0 0 990 360" fill="#0cb0a1"/><rect x="990" y="360" width="90" height="90" fill="#2a2a2a"/><rect x="1080" y="360" width="90" height="90" fill="#2a2a2a"/><path d="M 1080 450 A 45 45 0 0 1  1125 405 L 1080 450 A 45 45 0 0 0 1125 405" fill="#0eab9c"/><path d="M 1125 405 A 45 45 0 0 1  1170 450 L 1125 405 A 45 45 0 0 0 1170 450" fill="#234946"/><rect x="1260" y="360" width="90" height="90" fill="#2a2a2a"/><path d="M 1305 360 A 45 45 0 0 1  1350 405 L 1305 360 A 45 45 0 0 0 1350 405" fill="#1e5f59"/><path d="M 1305 450 A 45 45 0 0 1  1350 405 L 1305 450 A 45 45 0 0 0 1350 405" fill="#19756d"/><path d="M 360 450 A 90 90 0 0 1  450 540 L 360 450 A 90 90 0 0 0 450 540" fill="#a276d8"/><rect x="540" y="450" width="90" height="90" fill="#2a2a2a"/><path d="M 585 450 A 45 45 0 0 1  630 495 L 585 450 A 45 45 0 0 0 630 495" fill="#07c8b6"/><rect x="630" y="450" width="90" height="90" fill="#2a2a2a"/><path d="M 675 495 A 45 45 0 0 1  720 450 L 675 495 A 45 45 0 0 0 720 450" fill="#0bb5a5"/><path d="M 630 495 A 45 45 0 0 1  675 540 L 630 495 A 45 45 0 0 0 675 540" fill="#07c8b6"/><path d="M 675 540 A 45 45 0 0 1  720 495 L 675 540 A 45 45 0 0 0 720 495" fill="#755a97"/><path d="M 900 450 A 90 90 0 0 1  990 540 L 900 450 A 90 90 0 0 0 990 540" fill="#393340"/><rect x="1170" y="450" width="90" height="90" fill="#2a2a2a"/><path d="M 1170 495 A 45 45 0 0 1  1215 450 L 1170 495 A 45 45 0 0 0 1215 450" fill="#302e33"/><path d="M 0 630 A 90 90 0 0 1  90 540 L 0 630 A 90 90 0 0 0 90 540" fill="#6d548b"/><path d="M 180 630 A 90 90 0 0 1  270 540 L 180 630 A 90 90 0 0 0 270 540" fill="#1c6a63"/><rect x="360" y="540" width="90" height="90" fill="#2a2a2a"/><rect x="720" y="540" width="90" height="90" fill="#2a2a2a"/><path d="M 765 540 A 45 45 0 0 1  810 585 L 765 540 A 45 45 0 0 0 810 585" fill="#5b4971"/><path d="M 765 585 A 45 45 0 0 1  810 630 L 765 585 A 45 45 0 0 0 810 630" fill="#ab7ce5"/><rect x="990" y="540" width="90" height="90" fill="#2a2a2a"/><path d="M 990 540 A 45 45 0 0 1  1035 585 L 990 540 A 45 45 0 0 0 1035 585" fill="#483d55"/><rect x="180" y="630" width="90" height="90" fill="#2a2a2a"/><path d="M 180 630 A 45 45 0 0 1  225 675 L 180 630 A 45 45 0 0 0 225 675" fill="#5f4b76"/><path d="M 225 675 A 45 45 0 0 1  270 630 L 225 675 A 45 45 0 0 0 270 630" fill="#0ea899"/><path d="M 540 630 A 90 90 0 0 1  630 720 L 540 630 A 90 90 0 0 0 630 720" fill="#4a3e58"/><rect x="720" y="630" width="90" height="90" fill="#2a2a2a"/><path d="M 720 675 A 45 45 0 0 1  765 630 L 720 675 A 45 45 0 0 0 765 630" fill="#292d2d"/><path d="M 765 720 A 45 45 0 0 1  810 675 L 765 720 A 45 45 0 0 0 810 675" fill="#8363ab"/><path d="M 810 720 A 90 90 0 0 1  900 630 L 810 720 A 90 90 0 0 0 900 630" fill="#273938"/><path d="M 990 720 A 90 90 0 0 1  1080 630 L 990 720 A 90 90 0 0 0 1080 630" fill="#7c5ea0"/></g></svg>