<?xml version="1.0" standalone="no"?><svg xmlns:xlink="http://www.w3.org/1999/xlink" xmlns="http://www.w3.org/2000/svg" viewBox="0 0 1000 636.3724822418993" preserveAspectRatio="xMaxYMax slice"><g transform="scale(0.9730466089325678)"><rect x="0" y="0" width="1027.7142857142858" height="654" fill="#000000"/><path d="M 0 0 A 93.43 93.43 0 0 1  93.43 93.43 L 0 0 A 93.43 93.43 0 0 0 93.43 93.43" fill="#02897d"/><rect x="373.7142857142857" y="0" width="93.42857142857143" height="93.42857142857143" fill="#000000"/><path d="M 420.43 46.71 A 46.71 46.71 0 0 1  467.14 0 L 420.43 46.71 A 46.71 46.71 0 0 0 467.14 0" fill="#028f82"/><path d="M 747.43 93.43 A 93.43 93.43 0 0 1  840.8599999999999 0 L 747.43 93.43 A 93.43 93.43 0 0 0 840.8599999999999 0" fill="#027c70"/><path d="M 280.29 93.43 A 93.43 93.43 0 0 1  373.72 186.86 L 280.29 93.43 A 93.43 93.43 0 0 0 373.72 186.86" fill="#b783f6"/><path d="M 373.71 186.86 A 93.43 93.43 0 0 1  467.14 93.43 L 373.71 186.86 A 93.43 93.43 0 0 0 467.14 93.43" fill="#03d4c0"/><path d="M 654 93.43 A 93.43 93.43 0 0 1  747.4300000000001 186.86 L 654 93.43 A 93.43 93.43 0 0 0 747.4300000000001 186.86" fill="#1d1527"/><rect x="0" y="186.85714285714286" width="93.42857142857143" height="93.42857142857143" fill="#000000"/><path d="M 0 186.86 A 46.71 46.71 0 0 1  46.71 233.57000000000002 L 0 186.86 A 46.71 46.71 0 0 0 46.71 233.57000000000002" fill="#016259"/><path d="M 46.71 186.86 A 46.71 46.71 0 0 1  93.42 233.57000000000002 L 46.71 186.86 A 46.71 46.71 0 0 0 93.42 233.57000000000002" fill="#45315d"/><rect x="186.85714285714286" y="186.85714285714286" width="93.42857142857143" height="93.42857142857143" fill="#000000"/><path d="M 233.57 233.57000000000002 A 46.71 46.71 0 0 1  280.28 186.86 L 233.57 233.57000000000002 A 46.71 46.71 0 0 0 280.28 186.86" fill="#aa7ae5"/><path d="M 186.86 233.57 A 46.71 46.71 0 0 1  233.57000000000002 280.28 L 186.86 233.57 A 46.71 46.71 0 0 0 233.57000000000002 280.28" fill="#50396c"/><path d="M 280.29 280.29 A 93.43 93.43 0 0 1  373.72 186.86 L 280.29 280.29 A 93.43 93.43 0 0 0 373.72 186.86" fill="#01433d"/><path d="M 467.14 280.29 A 93.43 93.43 0 0 1  560.5699999999999 186.86 L 467.14 280.29 A 93.43 93.43 0 0 0 560.5699999999999 186.86" fill="#001c19"/><rect x="654" y="186.85714285714286" width="93.42857142857143" height="93.42857142857143" fill="#000000"/><path d="M 654 233.57000000000002 A 46.71 46.71 0 0 1  700.71 186.86 L 654 233.57000000000002 A 46.71 46.71 0 0 0 700.71 186.86" fill="#2d213d"/><path d="M 654 233.57 A 46.71 46.71 0 0 1  700.71 280.28 L 654 233.57 A 46.71 46.71 0 0 0 700.71 280.28" fill="#45315d"/><rect x="93.42857142857143" y="280.2857142857143" width="93.42857142857143" height="93.42857142857143" fill="#000000"/><path d="M 140.14 373.71 A 46.71 46.71 0 0 1  186.85 327 L 140.14 373.71 A 46.71 46.71 0 0 0 186.85 327" fill="#029183"/><path d="M 467.14 280.29 A 93.43 93.43 0 0 1  560.5699999999999 373.72 L 467.14 280.29 A 93.43 93.43 0 0 0 560.5699999999999 373.72" fill="#012925"/><rect x="654" y="280.2857142857143" width="93.42857142857143" height="93.42857142857143" fill="#000000"/><path d="M 654 327 A 46.71 46.71 0 0 1  700.71 280.29 L 654 327 A 46.71 46.71 0 0 0 700.71 280.29" fill="#22182e"/><path d="M 654 327 A 46.71 46.71 0 0 1  700.71 373.71 L 654 327 A 46.71 46.71 0 0 0 700.71 373.71" fill="#01302c"/><path d="M 700.71 327 A 46.71 46.71 0 0 1  747.4200000000001 373.71 L 700.71 327 A 46.71 46.71 0 0 0 747.4200000000001 373.71" fill="#0f0b15"/><rect x="747.4285714285714" y="280.2857142857143" width="93.42857142857143" height="93.42857142857143" fill="#000000"/><path d="M 747.43 280.29 A 46.71 46.71 0 0 1  794.14 327 L 747.43 280.29 A 46.71 46.71 0 0 0 794.14 327" fill="#00100e"/><path d="M 840.86 373.72 A 93.43 93.43 0 0 1  934.29 280.29 L 840.86 373.72 A 93.43 93.43 0 0 0 934.29 280.29" fill="#01403a"/><rect x="186.85714285714286" y="373.7142857142857" width="93.42857142857143" height="93.42857142857143" fill="#000000"/><path d="M 233.57 420.43 A 46.71 46.71 0 0 1  280.28 467.14 L 233.57 420.43 A 46.71 46.71 0 0 0 280.28 467.14" fill="#805bac"/><path d="M 280.29 467.14 A 93.43 93.43 0 0 1  373.72 373.71 L 280.29 467.14 A 93.43 93.43 0 0 0 373.72 373.71" fill="#9d71d4"/><rect x="560.5714285714286" y="373.7142857142857" width="93.42857142857143" height="93.42857142857143" fill="#000000"/><path d="M 607.29 420.41999999999996 A 46.71 46.71 0 0 1  654 373.71 L 607.29 420.41999999999996 A 46.71 46.71 0 0 0 654 373.71" fill="#493462"/><rect x="934.2857142857143" y="373.7142857142857" width="93.42857142857143" height="93.42857142857143" fill="#000000"/><path d="M 981 373.71 A 46.71 46.71 0 0 1  1027.71 420.41999999999996 L 981 373.71 A 46.71 46.71 0 0 0 1027.71 420.41999999999996" fill="#013530"/><path d="M 981 420.43 A 46.71 46.71 0 0 1  1027.71 467.14 L 981 420.43 A 46.71 46.71 0 0 0 1027.71 467.14" fill="#422f59"/><path d="M 93.43 560.5699999999999 A 93.43 93.43 0 0 1  186.86 467.14 L 93.43 560.5699999999999 A 93.43 93.43 0 0 0 186.86 467.14" fill="#01554d"/><path d="M 560.57 560.5699999999999 A 93.43 93.43 0 0 1  654 467.14 L 560.57 560.5699999999999 A 93.43 93.43 0 0 0 654 467.14" fill="#01574f"/><rect x="934.2857142857143" y="467.14285714285717" width="93.42857142857143" height="93.42857142857143" fill="#000000"/><path d="M 934.29 513.85 A 46.71 46.71 0 0 1  981 467.14 L 934.29 513.85 A 46.71 46.71 0 0 0 981 467.14" fill="#b581f4"/><path d="M 981 467.14 A 46.71 46.71 0 0 1  1027.71 513.85 L 981 467.14 A 46.71 46.71 0 0 0 1027.71 513.85" fill="#9f72d6"/><path d="M 981 513.86 A 46.71 46.71 0 0 1  1027.71 560.57 L 981 513.86 A 46.71 46.71 0 0 0 1027.71 560.57" fill="#03bfad"/><path d="M 373.71 560.57 A 93.43 93.43 0 0 1  467.14 654 L 373.71 560.57 A 93.43 93.43 0 0 0 467.14 654" fill="#03c0ae"/><path d="M 467.14 654 A 93.43 93.43 0 0 1  560.5699999999999 560.57 L 467.14 654 A 93.43 93.43 0 0 0 560.5699999999999 560.57" fill="#4c3666"/><path d="M 560.57 560.57 A 93.43 93.43 0 0 1  654 654 L 560.57 560.57 A 93.43 93.43 0 0 0 654 654" fill="#3a2a4e"/><rect x="934.2857142857143" y="560.5714285714286" width="93.42857142857143" height="93.42857142857143" fill="#000000"/></g></svg>