<?xml version="1.0" standalone="no"?><svg xmlns:xlink="http://www.w3.org/1999/xlink" xmlns="http://www.w3.org/2000/svg" viewBox="0 0 1000 500" preserveAspectRatio="xMaxYMax slice"><g transform="scale(0.6944444444444444)"><rect x="0" y="0" width="1440" height="720" fill="#2a2a2a"/><rect x="744" y="24" width="192" height="192" fill="#2a2a2a"/><polygon points="840,24 840,120 744,120" fill="#1a7169"/><path d="M 744 120 A 96 96 0 0 1 840 216 L 744 216" fill="#3c3544"/><polygon points="840,120 936,120 840,216" fill="#04d4c1"/><path d="M 1224 24 A 192 192 0 0 0 1416 216 L 1416 24" fill="#675182"/><rect x="24" y="264" width="192" height="192" fill="#2a2a2a"/><path d="M 24 264 A 96 96 0 0 0 120 360 L 120 264" fill="#25423f"/><path d="M 120 456 A 96 96 0 0 0 216 360 L 120 360" fill="#16867b"/><rect x="264" y="264" width="192" height="192" fill="#2a2a2a"/><path d="M 264 264 A 96 96 0 0 1  360 360 L 264 264 A 96 96 0 0 0 360 360" fill="#9d73d0"/><path d="M 360 264 A 96 96 0 0 0 456 360 L 456 264" fill="#b381f0"/><path d="M 360 360 A 96 96 0 0 1  456 456 L 360 360 A 96 96 0 0 0 456 456" fill="#ad7de8"/><path d="M 504 264 A 192 192 0 0 1  696 456 L 504 264 A 192 192 0 0 0 696 456" fill="#0ab9a8"/><polygon points="744,264 936,264 936,456" fill="#283534"/><rect x="984" y="264" width="192" height="192" fill="#2a2a2a"/><polygon points="1080,264 1176,264 1176,360" fill="#6c548a"/><path d="M 984 456 A 96 96 0 0 1  1080 360 L 984 456 A 96 96 0 0 0 1080 360" fill="#292f2e"/><path d="M 1080 456 A 96 96 0 0 1  1176 360 L 1080 456 A 96 96 0 0 0 1176 360" fill="#a97be2"/><rect x="1224" y="264" width="192" height="192" fill="#2a2a2a"/><path d="M 1224 360 A 96 96 0 0 0 1320 264 L 1224 264" fill="#1b6c64"/><path d="M 1224 456 A 96 96 0 0 1  1320 360 L 1224 456 A 96 96 0 0 0 1320 360" fill="#473c54"/><polygon points="1320,360 1416,360 1320,456" fill="#139286"/><rect x="24" y="504" width="192" height="192" fill="#2a2a2a"/><path d="M 24 600 A 96 96 0 0 1  120 504 L 24 600 A 96 96 0 0 0 120 504" fill="#2a2a2a"/><path d="M 120 600 A 96 96 0 0 1  216 504 L 120 600 A 96 96 0 0 0 216 504" fill="#1d665f"/><path d="M 24 600 A 96 96 0 0 1  120 696 L 24 600 A 96 96 0 0 0 120 696" fill="#19786f"/><rect x="504" y="504" width="192" height="192" fill="#2a2a2a"/><path d="M 504 600 A 96 96 0 0 1  600 504 L 504 600 A 96 96 0 0 0 600 504" fill="#8d69b9"/><path d="M 600 504 A 96 96 0 0 1  696 600 L 600 504 A 96 96 0 0 0 696 600" fill="#785b9b"/><path d="M 504 600 A 96 96 0 0 1 600 696 L 504 696" fill="#148f84"/><path d="M 600 600 A 96 96 0 0 1 696 696 L 600 696" fill="#0fa294"/><path d="M 984 504 A 192 192 0 0 1  1176 696 L 984 504 A 192 192 0 0 0 1176 696" fill="#514363"/><path d="M 1224 696 A 192 192 0 0 0 1416 504 L 1224 504" fill="#775b99"/></g></svg>