<?xml version="1.0" standalone="no"?><svg xmlns:xlink="http://www.w3.org/1999/xlink" xmlns="http://www.w3.org/2000/svg" viewBox="0 0 1000 500" preserveAspectRatio="xMaxYMax slice"><g transform="scale(0.6944444444444444)"><rect x="0" y="0" width="1440" height="720" fill="#2a2a2a"/><path d="M 0 120 A 120 120 0 0 1  120 0 L 0 120 A 120 120 0 0 0 120 0" fill="#b683f5"/><path d="M 240 120 A 120 120 0 0 1  360 0 L 240 120 A 120 120 0 0 0 360 0" fill="#a276d7"/><circle cx="420" cy="60" r="60" fill="#06cdbb"/><path d="M 600 0 A 120 120 0 0 1  720 120 L 600 0 A 120 120 0 0 0 720 120" fill="#205550"/><path d="M 720 0 A 120 120 0 0 1  840 120 L 720 0 A 120 120 0 0 0 840 120" fill="#16857b"/><circle cx="1020" cy="60" r="60" fill="#09c0af"/><circle cx="1260" cy="60" r="60" fill="#283332"/><path d="M 120 120 A 120 120 0 0 1  240 240 L 120 120 A 120 120 0 0 0 240 240" fill="#234945"/><circle cx="1020" cy="180" r="60" fill="#3b3542"/><circle cx="1260" cy="180" r="60" fill="#8765b0"/><path d="M 1320 240 A 120 120 0 0 1  1440 120 L 1320 240 A 120 120 0 0 0 1440 120" fill="#745995"/><path d="M 0 360 A 120 120 0 0 1  120 240 L 0 360 A 120 120 0 0 0 120 240" fill="#755996"/><rect x="120" y="240" width="120" height="120" fill="#2a2a2a"/><circle cx="150" cy="270" r="30" fill="#205550"/><rect x="600" y="240" width="120" height="120" fill="#2a2a2a"/><path d="M 660 300 A 60 60 0 0 1  720 240 L 660 300 A 60 60 0 0 0 720 240" fill="#224d49"/><circle cx="300" cy="420" r="60" fill="#16867b"/><circle cx="780" cy="420" r="60" fill="#524364"/><rect x="960" y="360" width="120" height="120" fill="#2a2a2a"/><circle cx="990" cy="390" r="30" fill="#8262a9"/><circle cx="1050" cy="450" r="30" fill="#1c6962"/><path d="M 1080 360 A 120 120 0 0 1  1200 480 L 1080 360 A 120 120 0 0 0 1200 480" fill="#9e74d3"/><path d="M 480 480 A 120 120 0 0 1  600 600 L 480 480 A 120 120 0 0 0 600 600" fill="#473c53"/><circle cx="660" cy="540" r="60" fill="#29302f"/><rect x="720" y="480" width="120" height="120" fill="#2a2a2a"/><circle cx="1020" cy="540" r="60" fill="#ab7ce5"/><path d="M 1200 480 A 120 120 0 0 1  1320 600 L 1200 480 A 120 120 0 0 0 1320 600" fill="#5c4a73"/><circle cx="1380" cy="540" r="60" fill="#10a093"/><path d="M 0 720 A 120 120 0 0 1  120 600 L 0 720 A 120 120 0 0 0 120 600" fill="#b985f9"/><path d="M 120 720 A 120 120 0 0 1  240 600 L 120 720 A 120 120 0 0 0 240 600" fill="#187970"/><circle cx="900" cy="660" r="60" fill="#3a3441"/><circle cx="1020" cy="660" r="60" fill="#04d4c1"/><path d="M 1320 600 A 120 120 0 0 1  1440 720 L 1320 600 A 120 120 0 0 0 1440 720" fill="#21514c"/></g></svg>